<svg width="29" height="29" viewBox="0 0 29 29" fill="none" xmlns="http://www.w3.org/2000/svg">
<path d="M9.50719 0.038166C8.74306 0.172142 7.91191 0.594164 7.40919 1.09657C6.90648 1.60568 6.67858 2.0009 6.04851 3.46123C5.29108 5.22301 5.21065 5.30339 3.44779 6.06035C2.78421 6.3484 2.067 6.69003 1.85251 6.81061C0.726425 7.48049 0.00921739 8.73315 0.00251451 10.0193C0.00251451 10.7428 0.123166 11.1983 0.659396 12.5314C1.45704 14.5142 1.45704 14.474 0.652693 16.4836C0.418093 17.0731 0.176789 17.7497 0.116463 17.9908C-0.299115 19.6052 0.424796 21.3536 1.85251 22.2044C2.067 22.3249 2.78421 22.6666 3.44779 22.9546C5.21065 23.7116 5.29108 23.792 6.04851 25.5537C6.33673 26.2169 6.67858 26.9337 6.79923 27.148C7.46952 28.2801 8.73636 28.9969 10.0434 28.9902C10.7673 28.9902 11.4108 28.816 12.6777 28.2801C13.1536 28.0859 13.7568 27.8648 14.0182 27.8045C14.4673 27.6906 14.5343 27.6906 14.9365 27.7911C15.1778 27.8514 15.8615 28.0993 16.4648 28.3337C17.0613 28.5749 17.745 28.8227 17.9863 28.883C19.595 29.2983 21.3512 28.5816 22.2024 27.148C22.3231 26.9337 22.6649 26.2169 22.9532 25.5537C23.2414 24.8839 23.5631 24.2274 23.6704 24.0934C23.9854 23.6982 24.3675 23.4503 25.1651 23.1221C27.7256 22.057 28.3155 21.5613 28.8517 19.9938C29.0461 19.411 29.0528 18.6138 28.8517 17.8971C28.7713 17.609 28.5165 16.8989 28.2819 16.3228C27.7524 15.0367 27.6653 14.6482 27.7725 14.119C27.8194 13.9113 28.0473 13.2682 28.2819 12.6921C28.5165 12.116 28.7713 11.406 28.8517 11.1179C29.0528 10.4011 29.0461 9.60399 28.8517 9.0212C28.3155 7.45369 27.7256 6.95798 25.1651 5.89288C24.3675 5.56464 23.9854 5.31679 23.6704 4.92156C23.5631 4.78759 23.2414 4.13111 22.9532 3.46123C22.6649 2.79806 22.3231 2.08129 22.2024 1.86693C21.5187 0.728136 20.272 0.0180702 18.9582 0.0247688C18.241 0.0247688 17.6378 0.185539 16.3374 0.728138C15.8615 0.929102 15.2583 1.14346 15.0036 1.21045C14.3869 1.36452 14.0383 1.29084 12.6844 0.734838C11.1025 0.0917568 10.2646 -0.0891094 9.50719 0.038166ZM11.699 10.2873C12.0074 10.3744 12.4028 10.8031 12.4632 11.1179C12.5369 11.5265 12.4363 11.828 12.128 12.1361C11.6722 12.5983 11.0891 12.6184 10.6065 12.183C10.1306 11.7543 10.097 11.0911 10.526 10.6155C10.8478 10.2605 11.2164 10.1533 11.699 10.2873ZM18.1606 10.361C18.4823 10.515 18.6901 10.7964 18.7572 11.1648C18.851 11.6672 18.7438 11.7878 15.1979 15.3247C12.3827 18.1181 11.813 18.6607 11.5851 18.7277C10.8075 18.9555 10.0501 18.1985 10.278 17.4214C10.3451 17.1937 10.8813 16.6243 13.6831 13.8108C15.9285 11.5667 17.1016 10.4346 17.2825 10.3476C17.6311 10.1868 17.8121 10.1868 18.1606 10.361ZM18.0735 16.6109C18.8309 16.9257 19.0052 17.9306 18.3952 18.4798C17.9193 18.9086 17.2557 18.8751 16.8267 18.3995C16.4246 17.9506 16.4112 17.3813 16.7999 16.9391C17.1552 16.5372 17.6177 16.4166 18.0735 16.6109Z" fill="#009FF9"/>
</svg>
