<svg width="50" height="61" viewBox="0 0 50 61" fill="none" xmlns="http://www.w3.org/2000/svg">
<path d="M17.4874 2.5237V5.04747H20.0112H22.5349L22.5114 7.59472L22.4762 10.142L21.3259 10.2946C17.8748 10.7641 13.7663 12.384 10.773 14.4735C10.5852 14.5908 10.3152 14.3678 8.6131 12.6775L6.67625 10.7406L4.97418 12.4779C4.04684 13.4405 3.28384 14.2622 3.28384 14.2974C3.28384 14.3443 4.07031 15.166 5.03287 16.1286L6.7819 17.8776L5.84282 18.9928C2.72039 22.7021 0.713112 27.3623 0.11445 32.2807C-0.03815 33.5602 -0.03815 36.6474 0.11445 37.9152C0.677896 42.3993 2.34476 46.5899 4.96244 50.0762C8.87135 55.2881 14.4823 58.6805 21.0676 59.8309C22.8636 60.1478 27.3946 60.1126 29.2258 59.7722C34.4964 58.8097 38.9688 56.4737 42.6781 52.7761C46.7279 48.7146 49.2282 43.5379 49.8856 37.8565C50.0382 36.4948 50.0382 33.5485 49.8856 32.2807C49.2869 27.3623 47.2796 22.7021 44.1572 18.9928L43.2181 17.8776L44.9671 16.1286C45.9297 15.166 46.7162 14.3443 46.7162 14.2974C46.7162 14.2622 45.9532 13.4405 45.0258 12.4779L43.3237 10.7406L41.3986 12.6657L39.4618 14.5908L38.3232 13.8631C35.4003 12.0319 31.8435 10.7172 28.6624 10.2946L27.5238 10.142L27.4886 7.59472L27.4651 5.04747H29.9888H32.5126V2.5237V-6.86646e-05H25H17.4874V2.5237ZM28.9441 15.4243C34.0151 16.4807 38.3584 19.3097 41.3752 23.5356C42.8307 25.5663 44.1807 28.7357 44.6502 31.2125C45.6597 36.5066 44.5915 41.7184 41.5747 46.2495C40.483 47.9046 38.1706 50.2758 36.5037 51.4496C34.379 52.9404 31.6088 54.126 28.8737 54.7129C27.8055 54.9477 27.289 54.9829 25 54.9829C22.6875 54.9829 22.2062 54.9594 21.1263 54.7247C17.9452 54.0321 14.8462 52.6 12.4985 50.7218C11.0077 49.5245 8.97699 47.2355 7.99096 45.6391C4.30508 39.5938 3.98814 32.4216 7.11058 26.118C10.0569 20.1666 15.6562 16.1638 22.4175 15.1895C24.1196 14.943 27.1481 15.0604 28.9441 15.4243Z" fill="black"/>
<path d="M25.0001 27.5854V35.098H17.4875H9.97485V35.591C9.97485 37.2931 10.6439 39.8638 11.5595 41.7302C14.8346 48.3742 22.4528 51.5788 29.625 49.3485C33.2874 48.1981 36.6447 45.3339 38.3702 41.8594C39.5558 39.4764 39.9666 37.7274 39.9666 35.0393C39.9666 33.032 39.8023 31.999 39.2389 30.2852C37.7363 25.8011 34.0387 22.1622 29.5077 20.7419C28.2986 20.3545 26.6787 20.0728 25.7396 20.0728H25.0001V27.5854Z" fill="#0EB062"/>
</svg>
