<svg width="199" height="76" viewBox="0 0 199 76" fill="none" xmlns="http://www.w3.org/2000/svg">
<g clip-path="url(#clip0_1_2)">
<path d="M86.686 0.406993C85.1406 0.935973 83.7181 1.77186 82.5038 2.86445C81.2895 3.95704 80.3086 5.28379 79.62 6.765C78.5903 9.29307 78.402 12.0856 79.0831 14.729L79.59 16.429L80.843 16.22C83.1954 15.689 85.366 14.5469 87.136 12.909C88.4223 11.6042 89.3799 10.0123 89.9297 8.26448C90.4795 6.51669 90.6058 4.6632 90.298 2.85701C90.1526 2.04641 89.9433 1.24857 89.672 0.470989C89.34 -0.130011 88.207 -0.159007 86.686 0.406993Z" fill="#fff"/>
<path d="M65.03 4.37501C64.2401 7.05191 64.3027 9.90827 65.209 12.548C66.521 15.889 70.459 19.11 73.799 19.557C74.932 19.706 75.022 19.676 75.35 18.722C75.8918 17.291 76.1448 15.7669 76.0943 14.2376C76.0437 12.7083 75.6908 11.2041 75.0558 9.81196C74.4207 8.41982 73.5162 7.16726 72.3944 6.12663C71.2726 5.086 69.9558 4.27791 68.52 3.74901C65.717 2.76401 65.658 2.79401 65.03 4.37501Z" fill="#fff"/>
<path d="M12.23 22.386C9.80884 23.1183 7.58495 24.3895 5.72522 26.104C3.8655 27.8186 2.41823 29.9322 1.49201 32.286C-0.547094 37.9428 -0.494239 44.1427 1.64101 49.764C2.8577 52.5627 4.74204 55.0205 7.12901 56.922C9.84301 58.922 11.752 59.547 15.629 59.722C19.329 59.871 21.803 59.394 24.07 58.141C24.5326 57.865 25.0107 57.6159 25.502 57.395C25.77 57.395 25.591 62.406 25.293 63.48C24.9009 64.4302 24.3165 65.2891 23.5765 66.0026C22.8365 66.7161 21.9569 67.2688 20.993 67.626C19.7905 67.9719 18.5443 68.1427 17.293 68.133C16.1266 68.2142 14.9571 68.025 13.8758 67.5801C12.7945 67.1352 11.8305 66.4466 11.059 65.568L10.105 64.435L6.52601 66.195C5.23525 66.7338 4.02965 67.4574 2.94701 68.343C3.54766 69.3056 4.28048 70.1791 5.12401 70.938C8.82401 74.666 12.64 76.068 18.457 75.8C25.168 75.5 30 73.026 32.177 68.761C33.609 65.898 33.668 65.182 33.668 43.289V22.798H26.808V23.991C26.8427 24.3926 26.8024 24.7972 26.689 25.184C26.629 25.184 25.884 24.707 25.019 24.14C22.5501 22.5451 19.6386 21.7751 16.704 21.941C15.2013 21.935 13.7021 22.0841 12.23 22.386ZM22.162 30.086C25.204 31.876 26.576 35.216 26.576 40.853C26.576 48.489 23.951 52.247 18.463 52.575C14.138 52.814 11.603 51.322 9.75401 47.385C8.77001 45.357 8.77001 45.267 8.77001 41.002C8.77001 37.184 8.85901 36.468 9.45601 34.977C10.3789 32.6568 12.1334 30.7639 14.377 29.668C16.9258 28.7792 19.7218 28.9279 22.162 30.082V30.086Z" fill="#fff"/>
<path d="M70.996 22.48C68.7228 23.1153 66.6058 24.2145 64.7783 25.7084C62.9509 27.2023 61.4527 29.0585 60.378 31.16C58.8063 34.1396 58.0742 37.4904 58.26 40.854C58.29 47.118 59.722 50.995 63.45 54.754C66.97 58.333 70.638 59.795 76.037 59.795C81.585 59.795 85.194 58.395 88.684 54.903C92.384 51.175 93.993 46.939 93.993 40.855C94.0573 39.0016 93.8869 37.1476 93.486 35.337C92.7669 32.2338 91.2147 29.3856 88.9967 27.0992C86.7788 24.8129 83.979 23.175 80.899 22.362C77.6229 21.7444 74.2566 21.7845 70.996 22.48V22.48ZM79.288 29.847C80.5057 30.3123 81.6127 31.0271 82.5378 31.9455C83.463 32.864 84.1858 33.9657 84.66 35.18C85.26 36.731 85.346 37.48 85.346 40.847C85.346 44.158 85.257 44.963 84.69 46.395C84.0372 48.4704 82.6188 50.2195 80.723 51.287C79.261 52.092 78.874 52.182 76.279 52.182C73.774 52.182 73.266 52.093 71.716 51.317C68.703 49.855 67.063 46.754 66.795 41.981C66.586 37.895 67.362 34.673 69.151 32.407C71.205 29.754 75.41 28.71 79.288 29.844V29.847Z" fill="#fff"/>
<path d="M140.281 22.386C137.521 23.0679 134.99 24.4672 132.944 26.442C129.156 30.081 127.456 34.107 127.244 39.954C127.065 44.398 127.572 47.054 129.213 50.393C130.177 52.3607 131.522 54.1174 133.17 55.5612C134.817 57.0051 136.736 58.1073 138.813 58.804C142.382 59.8819 146.159 60.0765 149.819 59.371C152.841 58.6799 155.598 57.1255 157.753 54.897C159.96 52.69 161.78 49.737 161.094 49.497C160.885 49.437 159.094 48.897 157.157 48.274C153.787 47.26 153.578 47.23 153.309 47.737C152.755 48.5041 152.126 49.2136 151.43 49.855C150.59 50.7974 149.506 51.4895 148.298 51.855C144.898 52.869 141.11 52.213 138.932 50.215C137.375 48.5941 136.33 46.5509 135.927 44.34L135.718 43.087H161.727L161.906 42.431C162.234 41.477 161.787 36.704 161.16 34.258C160.45 31.2595 158.91 28.5216 156.716 26.358C153.525 23.167 150.124 21.914 144.905 21.944C143.353 21.9349 141.803 22.083 140.281 22.386V22.386ZM149.468 29.694C151.556 30.708 152.898 32.856 153.554 36.137L153.763 37.121H136.016L136.195 36.047C136.443 34.7464 136.975 33.5165 137.753 32.4448C138.531 31.3732 139.535 30.4862 140.695 29.847C143.487 28.6501 146.636 28.5951 149.468 29.694V29.694Z" fill="#fff"/>
<path d="M178.74 22.118C176.983 22.5859 175.312 23.3309 173.789 24.325L172.477 25.22V22.804H165.318V75.004H173.371V57.104L174.504 57.82C175.343 58.3083 176.221 58.7273 177.129 59.073C180.128 59.7867 183.235 59.9285 186.286 59.491C192.102 58.298 197.203 52.78 198.575 46.218C199.142 42.6913 199.142 39.0967 198.575 35.57C197.991 32.5155 196.59 29.6764 194.52 27.355C192.451 25.0336 189.791 23.3167 186.823 22.387C184.156 21.9052 181.433 21.8146 178.74 22.118V22.118ZM184.198 29.485C189.09 31.245 191.625 37.419 190.253 44.279C189.153 49.679 186.674 52.243 182.289 52.571C180.131 52.8244 177.952 52.3303 176.115 51.171C174.441 49.5689 173.288 47.5008 172.804 45.235C172.386 42.3269 172.386 39.3741 172.804 36.466C173.49 33.245 175.604 30.411 177.994 29.546C180.024 29.0042 182.158 28.9832 184.198 29.485V29.485Z" fill="#fff"/>
<path d="M52.879 22.834C49.9146 23.274 47.2168 24.7927 45.303 27.099L44.378 28.262V22.804H37.22V58.894H45.273V48.634C45.273 39.234 45.333 38.224 45.873 36.465C46.2337 35.269 46.8389 34.161 47.6501 33.2111C48.4614 32.2613 49.4612 31.4903 50.586 30.947C51.9143 30.2495 53.4186 29.9591 54.911 30.112H57.506V22.864L56.581 22.685C55.3502 22.4748 54.089 22.5256 52.879 22.834Z" fill="#fff"/>
<path d="M96.705 26.294L96.794 29.814L105.235 29.903C109.858 29.933 113.646 30.052 113.646 30.142C113.646 30.232 109.47 36.435 104.34 43.892C99.24 51.379 95.004 57.821 94.915 58.209L94.796 58.895H125.577V51.737H116.629C111.708 51.737 107.681 51.677 107.681 51.618C107.681 51.529 111.916 45.295 117.081 37.718C122.241 30.172 126.481 23.699 126.481 23.401C126.481 22.801 126.181 22.801 111.568 22.801H96.615L96.705 26.294Z" fill="#fff"/>
</g>
<defs>
<clipPath id="clip0_1_2">
<rect width="199" height="75.838" fill="white"/>
</clipPath>
</defs>
</svg>
