<svg width="26" height="27" viewBox="0 0 26 27" fill="none" xmlns="http://www.w3.org/2000/svg">
<path d="M23.2894 13.4958L25.6246 11.1225C26.3207 10.4381 25.9961 9.22199 25.0831 8.99523L21.9016 8.15201L22.7985 4.88169C23.0519 3.94102 22.1978 3.05376 21.2923 3.31701L18.1441 4.24867L17.3324 0.943757C17.1176 0.0104121 15.9334 -0.330937 15.2847 0.381187L13 2.825L10.7154 0.38124C10.0741 -0.322816 8.88491 -0.000240292 8.66766 0.94381L7.85598 4.24872L4.70779 3.31706C3.802 3.05371 2.94816 3.94128 3.20156 4.88174L4.09841 8.15206L0.916957 8.99529C0.00350218 9.2221 -0.320432 10.4385 0.375374 11.1225L2.71055 13.4958L0.375374 15.869C-0.320737 16.5534 0.00385775 17.7695 0.916906 17.9963L4.09836 18.8395L3.20151 22.1098C2.94806 23.0505 3.8022 23.9378 4.70773 23.6745L7.85587 22.7429L8.66756 26.0478C8.89298 27.0273 10.074 27.3143 10.7153 26.6103L13 24.1845L15.2846 26.6103C15.9194 27.3216 17.1121 27.0051 17.3324 26.0478L18.1441 22.7429L21.2922 23.6745C22.198 23.9379 23.0518 23.0503 22.7984 22.1098L21.9016 18.8395L25.083 17.9963C25.9964 17.7694 26.3204 16.5531 25.6246 15.869L23.2894 13.4958Z" fill="#09B663"/>
<path d="M9.73 13.825C9 13.825 8.415 13.58 7.975 13.09C7.545 12.59 7.33 11.93 7.33 11.11C7.33 10.31 7.55 9.66 7.99 9.16C8.43 8.66 9.01 8.41 9.73 8.41C10.44 8.41 11.015 8.66 11.455 9.16C11.895 9.66 12.115 10.31 12.115 11.11C12.115 11.93 11.895 12.59 11.455 13.09C11.025 13.58 10.45 13.825 9.73 13.825ZM9.73 12.73C10.09 12.73 10.37 12.59 10.57 12.31C10.78 12.02 10.885 11.62 10.885 11.11C10.885 10.62 10.78 10.23 10.57 9.94C10.36 9.65 10.08 9.505 9.73 9.505C9.37 9.505 9.085 9.65 8.875 9.94C8.675 10.23 8.57 10.62 8.56 11.11C8.57 11.62 8.675 12.02 8.875 12.31C9.075 12.59 9.36 12.73 9.73 12.73ZM9.145 19L15.085 8.5H16.615L10.675 19H9.145ZM16.18 19.075C15.45 19.075 14.865 18.83 14.425 18.34C13.995 17.84 13.78 17.18 13.78 16.36C13.78 15.56 14 14.91 14.44 14.41C14.88 13.91 15.46 13.66 16.18 13.66C16.89 13.66 17.465 13.91 17.905 14.41C18.345 14.91 18.565 15.56 18.565 16.36C18.565 17.18 18.345 17.84 17.905 18.34C17.475 18.83 16.9 19.075 16.18 19.075ZM16.18 17.98C16.54 17.98 16.82 17.84 17.02 17.56C17.23 17.27 17.335 16.87 17.335 16.36C17.335 15.87 17.23 15.48 17.02 15.19C16.81 14.9 16.53 14.755 16.18 14.755C15.82 14.755 15.535 14.9 15.325 15.19C15.125 15.48 15.02 15.87 15.01 16.36C15.02 16.87 15.125 17.27 15.325 17.56C15.525 17.84 15.81 17.98 16.18 17.98Z" fill="white"/>
</svg>
