<svg width="841" height="119" viewBox="0 0 841 119" fill="none" xmlns="http://www.w3.org/2000/svg">
<path d="M24.908 87.242C23.7934 87.242 22.752 87.044 21.784 86.648C20.816 86.2373 19.958 85.6727 19.21 84.954C18.4767 84.2207 17.9047 83.3773 17.494 82.424C17.098 81.456 16.9 80.4147 16.9 79.3C16.9 78.1853 17.098 77.1513 17.494 76.198C17.9047 75.23 18.4767 74.3867 19.21 73.668C19.958 72.9347 20.816 72.37 21.784 71.974C22.752 71.5633 23.7934 71.358 24.908 71.358C26.0227 71.358 27.064 71.5633 28.032 71.974C29.0147 72.37 29.8727 72.9347 30.606 73.668C31.3394 74.3867 31.9114 75.23 32.322 76.198C32.7327 77.1513 32.938 78.1853 32.938 79.3C32.938 80.4147 32.7327 81.456 32.322 82.424C31.9114 83.3773 31.3394 84.2207 30.606 84.954C29.8727 85.6727 29.0147 86.2373 28.032 86.648C27.064 87.044 26.0227 87.242 24.908 87.242ZM24.93 85.108C25.722 85.108 26.4554 84.9613 27.13 84.668C27.8194 84.3747 28.4207 83.9713 28.934 83.458C29.4474 82.93 29.8507 82.314 30.144 81.61C30.4374 80.8913 30.584 80.1213 30.584 79.3C30.584 78.464 30.4374 77.694 30.144 76.99C29.8507 76.286 29.4474 75.6773 28.934 75.164C28.4207 74.636 27.8194 74.2253 27.13 73.932C26.4554 73.6387 25.722 73.492 24.93 73.492C24.1234 73.492 23.3754 73.6387 22.686 73.932C21.9967 74.2253 21.3954 74.636 20.882 75.164C20.3687 75.6773 19.9654 76.286 19.672 76.99C19.3934 77.694 19.254 78.4567 19.254 79.278C19.254 80.114 19.3934 80.8913 19.672 81.61C19.9654 82.314 20.3687 82.93 20.882 83.458C21.3954 83.9713 21.9967 84.3747 22.686 84.668C23.3754 84.9613 24.1234 85.108 24.93 85.108ZM35.1066 87V75.802H37.3066V77.232C37.6586 76.704 38.0913 76.2933 38.6046 76C39.1326 75.692 39.7266 75.538 40.3866 75.538C40.8413 75.5527 41.2153 75.6187 41.5086 75.736V77.716C41.3033 77.628 41.0906 77.5693 40.8706 77.54C40.6506 77.496 40.4306 77.474 40.2106 77.474C39.5653 77.474 38.9933 77.65 38.4946 78.002C37.9959 78.3393 37.5999 78.838 37.3066 79.498V87H35.1066ZM47.7741 87.176C46.7328 87.176 45.7795 86.9193 44.9141 86.406C44.0488 85.8927 43.3668 85.2033 42.8681 84.338C42.3695 83.458 42.1201 82.4753 42.1201 81.39C42.1201 80.3047 42.3695 79.3293 42.8681 78.464C43.3815 77.5987 44.0708 76.9093 44.9361 76.396C45.8015 75.8827 46.7621 75.626 47.8181 75.626C48.4341 75.626 49.0281 75.7213 49.6001 75.912C50.1721 76.1027 50.7001 76.3813 51.1841 76.748V71.6L53.3841 71.182V87H51.2061V85.922C50.2528 86.758 49.1088 87.176 47.7741 87.176ZM48.0601 85.262C48.7055 85.262 49.2921 85.1447 49.8201 84.91C50.3628 84.6753 50.8175 84.338 51.1841 83.898V78.86C50.8175 78.4493 50.3628 78.1267 49.8201 77.892C49.2921 77.6427 48.7055 77.518 48.0601 77.518C47.3561 77.518 46.7181 77.6867 46.1461 78.024C45.5741 78.3613 45.1195 78.8233 44.7821 79.41C44.4448 79.982 44.2761 80.6347 44.2761 81.368C44.2761 82.1013 44.4448 82.7613 44.7821 83.348C45.1195 83.9347 45.5741 84.404 46.1461 84.756C46.7181 85.0933 47.3561 85.262 48.0601 85.262ZM61.3574 87.198C60.2574 87.198 59.2601 86.9413 58.3654 86.428C57.4854 85.9147 56.7814 85.218 56.2534 84.338C55.7401 83.458 55.4834 82.4753 55.4834 81.39C55.4834 80.3193 55.7327 79.3513 56.2314 78.486C56.7301 77.606 57.4047 76.9093 58.2554 76.396C59.1061 75.868 60.0521 75.604 61.0934 75.604C62.1347 75.604 63.0587 75.868 63.8654 76.396C64.6721 76.9093 65.3101 77.6133 65.7794 78.508C66.2634 79.388 66.5054 80.3853 66.5054 81.5V82.116H57.6834C57.8007 82.732 58.0281 83.282 58.3654 83.766C58.7174 84.25 59.1574 84.6313 59.6854 84.91C60.2281 85.1887 60.8147 85.328 61.4454 85.328C61.9881 85.328 62.5087 85.2473 63.0074 85.086C63.5207 84.91 63.9461 84.6607 64.2834 84.338L65.6914 85.724C65.0314 86.2227 64.3494 86.5967 63.6454 86.846C62.9561 87.0807 62.1934 87.198 61.3574 87.198ZM57.7054 80.466H64.3274C64.2394 79.8793 64.0341 79.366 63.7114 78.926C63.4034 78.4713 63.0147 78.1193 62.5454 77.87C62.0907 77.606 61.5921 77.474 61.0494 77.474C60.4921 77.474 59.9787 77.5987 59.5094 77.848C59.0401 78.0973 58.6441 78.4493 58.3214 78.904C58.0134 79.344 57.8081 79.8647 57.7054 80.466ZM68.6007 87V75.802H70.8007V77.232C71.1527 76.704 71.5854 76.2933 72.0987 76C72.6267 75.692 73.2207 75.538 73.8807 75.538C74.3354 75.5527 74.7094 75.6187 75.0027 75.736V77.716C74.7974 77.628 74.5847 77.5693 74.3647 77.54C74.1447 77.496 73.9247 77.474 73.7047 77.474C73.0594 77.474 72.4874 77.65 71.9887 78.002C71.4901 78.3393 71.0941 78.838 70.8007 79.498V87H68.6007ZM89.0405 87.242C87.8965 87.242 86.8331 87.044 85.8505 86.648C84.8825 86.2373 84.0245 85.6727 83.2765 84.954C82.5431 84.2207 81.9711 83.3773 81.5605 82.424C81.1645 81.456 80.9665 80.4147 80.9665 79.3C80.9665 78.1853 81.1645 77.1513 81.5605 76.198C81.9711 75.23 82.5431 74.3867 83.2765 73.668C84.0245 72.9347 84.8898 72.37 85.8725 71.974C86.8551 71.5633 87.9111 71.358 89.0405 71.358C89.8471 71.358 90.6318 71.468 91.3945 71.688C92.1718 71.8933 92.8831 72.194 93.5285 72.59C94.1885 72.986 94.7605 73.4627 95.2445 74.02L93.7045 75.604C93.1325 74.9147 92.4358 74.394 91.6145 74.042C90.7931 73.6753 89.9351 73.492 89.0405 73.492C88.2191 73.492 87.4565 73.6387 86.7525 73.932C86.0631 74.2253 85.4618 74.636 84.9485 75.164C84.4351 75.6773 84.0318 76.286 83.7385 76.99C83.4598 77.694 83.3205 78.464 83.3205 79.3C83.3205 80.1213 83.4598 80.884 83.7385 81.588C84.0318 82.292 84.4425 82.908 84.9705 83.436C85.4985 83.964 86.1145 84.3747 86.8185 84.668C87.5225 84.9613 88.2851 85.108 89.1065 85.108C90.0011 85.108 90.8445 84.932 91.6365 84.58C92.4431 84.2133 93.1251 83.7 93.6825 83.04L95.2005 84.58C94.6871 85.1227 94.1005 85.5993 93.4405 86.01C92.7951 86.406 92.0911 86.714 91.3285 86.934C90.5805 87.1393 89.8178 87.242 89.0405 87.242ZM102.198 87.22C101.113 87.22 100.123 86.9633 99.2282 86.45C98.3482 85.9367 97.6515 85.24 97.1382 84.36C96.6248 83.48 96.3682 82.4973 96.3682 81.412C96.3682 80.3267 96.6248 79.344 97.1382 78.464C97.6515 77.584 98.3482 76.8873 99.2282 76.374C100.123 75.846 101.113 75.582 102.198 75.582C103.298 75.582 104.288 75.846 105.168 76.374C106.048 76.8873 106.745 77.584 107.258 78.464C107.772 79.344 108.028 80.3267 108.028 81.412C108.028 82.4973 107.772 83.48 107.258 84.36C106.745 85.24 106.048 85.9367 105.168 86.45C104.288 86.9633 103.298 87.22 102.198 87.22ZM102.198 85.284C102.888 85.284 103.511 85.1153 104.068 84.778C104.626 84.426 105.066 83.9567 105.388 83.37C105.711 82.7833 105.872 82.1233 105.872 81.39C105.872 80.6713 105.704 80.026 105.366 79.454C105.044 78.8673 104.604 78.398 104.046 78.046C103.504 77.694 102.888 77.518 102.198 77.518C101.509 77.518 100.886 77.694 100.328 78.046C99.7855 78.398 99.3455 78.8673 99.0082 79.454C98.6855 80.026 98.5242 80.6713 98.5242 81.39C98.5242 82.1233 98.6855 82.7833 99.0082 83.37C99.3308 83.9567 99.7708 84.426 100.328 84.778C100.886 85.1153 101.509 85.284 102.198 85.284ZM110.109 87V75.802H112.309V76.946C113.174 76.0367 114.296 75.582 115.675 75.582C116.54 75.582 117.295 75.7653 117.941 76.132C118.601 76.4987 119.114 77.012 119.481 77.672C119.862 78.332 120.053 79.0947 120.053 79.96V87H117.853V80.334C117.853 79.454 117.603 78.7647 117.105 78.266C116.621 77.7527 115.939 77.496 115.059 77.496C114.472 77.496 113.944 77.6207 113.475 77.87C113.005 78.1193 112.617 78.4787 112.309 78.948V87H110.109ZM123.941 87V77.65H121.345V75.802H123.941V74.108C123.941 72.9347 124.263 72.04 124.909 71.424C125.569 70.808 126.507 70.5 127.725 70.5C128.033 70.5 128.319 70.522 128.583 70.566C128.861 70.5953 129.111 70.6467 129.331 70.72V72.612C129.067 72.5387 128.832 72.4873 128.627 72.458C128.421 72.414 128.194 72.392 127.945 72.392C127.329 72.392 126.867 72.5387 126.559 72.832C126.265 73.1107 126.119 73.558 126.119 74.174V75.802H129.331V77.65H126.119V87H123.941ZM131.013 87V75.802H133.213V87H131.013ZM132.113 73.998C131.746 73.998 131.431 73.866 131.167 73.602C130.903 73.3233 130.771 73.0007 130.771 72.634C130.771 72.2527 130.903 71.9373 131.167 71.688C131.431 71.424 131.746 71.292 132.113 71.292C132.494 71.292 132.817 71.424 133.081 71.688C133.345 71.9373 133.477 72.2527 133.477 72.634C133.477 73.0007 133.345 73.3233 133.081 73.602C132.817 73.866 132.494 73.998 132.113 73.998ZM135.804 87V75.802H138.004V77.232C138.356 76.704 138.789 76.2933 139.302 76C139.83 75.692 140.424 75.538 141.084 75.538C141.539 75.5527 141.913 75.6187 142.206 75.736V77.716C142.001 77.628 141.788 77.5693 141.568 77.54C141.348 77.496 141.128 77.474 140.908 77.474C140.263 77.474 139.691 77.65 139.192 78.002C138.693 78.3393 138.297 78.838 138.004 79.498V87H135.804ZM143.968 87V75.802H146.168V76.88C147.004 76.0147 148.053 75.582 149.314 75.582C150.077 75.582 150.751 75.7507 151.338 76.088C151.939 76.4253 152.416 76.88 152.768 77.452C153.237 76.836 153.787 76.374 154.418 76.066C155.049 75.7433 155.76 75.582 156.552 75.582C157.388 75.582 158.114 75.7653 158.73 76.132C159.361 76.4987 159.852 77.012 160.204 77.672C160.571 78.332 160.754 79.0947 160.754 79.96V87H158.554V80.334C158.554 79.454 158.319 78.7647 157.85 78.266C157.395 77.7527 156.772 77.496 155.98 77.496C155.437 77.496 154.946 77.6207 154.506 77.87C154.066 78.1193 153.685 78.5007 153.362 79.014C153.391 79.1607 153.413 79.3147 153.428 79.476C153.443 79.6373 153.45 79.7987 153.45 79.96V87H151.272V80.334C151.272 79.454 151.037 78.7647 150.568 78.266C150.113 77.7527 149.49 77.496 148.698 77.496C148.17 77.496 147.693 77.6133 147.268 77.848C146.843 78.068 146.476 78.4053 146.168 78.86V87H143.968ZM168.65 87.198C167.55 87.198 166.553 86.9413 165.658 86.428C164.778 85.9147 164.074 85.218 163.546 84.338C163.033 83.458 162.776 82.4753 162.776 81.39C162.776 80.3193 163.026 79.3513 163.524 78.486C164.023 77.606 164.698 76.9093 165.548 76.396C166.399 75.868 167.345 75.604 168.386 75.604C169.428 75.604 170.352 75.868 171.158 76.396C171.965 76.9093 172.603 77.6133 173.072 78.508C173.556 79.388 173.798 80.3853 173.798 81.5V82.116H164.976C165.094 82.732 165.321 83.282 165.658 83.766C166.01 84.25 166.45 84.6313 166.978 84.91C167.521 85.1887 168.108 85.328 168.738 85.328C169.281 85.328 169.802 85.2473 170.3 85.086C170.814 84.91 171.239 84.6607 171.576 84.338L172.984 85.724C172.324 86.2227 171.642 86.5967 170.938 86.846C170.249 87.0807 169.486 87.198 168.65 87.198ZM164.998 80.466H171.62C171.532 79.8793 171.327 79.366 171.004 78.926C170.696 78.4713 170.308 78.1193 169.838 77.87C169.384 77.606 168.885 77.474 168.342 77.474C167.785 77.474 167.272 77.5987 166.802 77.848C166.333 78.0973 165.937 78.4493 165.614 78.904C165.306 79.344 165.101 79.8647 164.998 80.466ZM181.085 87.176C180.043 87.176 179.09 86.9193 178.225 86.406C177.359 85.8927 176.677 85.2033 176.179 84.338C175.68 83.458 175.431 82.4753 175.431 81.39C175.431 80.3047 175.68 79.3293 176.179 78.464C176.692 77.5987 177.381 76.9093 178.247 76.396C179.112 75.8827 180.073 75.626 181.129 75.626C181.745 75.626 182.339 75.7213 182.911 75.912C183.483 76.1027 184.011 76.3813 184.495 76.748V71.6L186.695 71.182V87H184.517V85.922C183.563 86.758 182.419 87.176 181.085 87.176ZM181.371 85.262C182.016 85.262 182.603 85.1447 183.131 84.91C183.673 84.6753 184.128 84.338 184.495 83.898V78.86C184.128 78.4493 183.673 78.1267 183.131 77.892C182.603 77.6427 182.016 77.518 181.371 77.518C180.667 77.518 180.029 77.6867 179.457 78.024C178.885 78.3613 178.43 78.8233 178.093 79.41C177.755 79.982 177.587 80.6347 177.587 81.368C177.587 82.1013 177.755 82.7613 178.093 83.348C178.43 83.9347 178.885 84.404 179.457 84.756C180.029 85.0933 180.667 85.262 181.371 85.262Z" fill="#0A0A0A"/>
<path d="M276.267 87.242C275.153 87.242 274.111 87.044 273.143 86.648C272.175 86.2373 271.317 85.6727 270.569 84.954C269.836 84.2207 269.264 83.3773 268.853 82.424C268.457 81.456 268.259 80.4147 268.259 79.3C268.259 78.1853 268.457 77.1513 268.853 76.198C269.264 75.23 269.836 74.3867 270.569 73.668C271.317 72.9347 272.175 72.37 273.143 71.974C274.111 71.5633 275.153 71.358 276.267 71.358C277.382 71.358 278.423 71.5633 279.391 71.974C280.374 72.37 281.232 72.9347 281.965 73.668C282.699 74.3867 283.271 75.23 283.681 76.198C284.092 77.1513 284.297 78.1853 284.297 79.3C284.297 80.4147 284.092 81.456 283.681 82.424C283.271 83.3773 282.699 84.2207 281.965 84.954C281.232 85.6727 280.374 86.2373 279.391 86.648C278.423 87.044 277.382 87.242 276.267 87.242ZM276.289 85.108C277.081 85.108 277.815 84.9613 278.489 84.668C279.179 84.3747 279.78 83.9713 280.293 83.458C280.807 82.93 281.21 82.314 281.503 81.61C281.797 80.8913 281.943 80.1213 281.943 79.3C281.943 78.464 281.797 77.694 281.503 76.99C281.21 76.286 280.807 75.6773 280.293 75.164C279.78 74.636 279.179 74.2253 278.489 73.932C277.815 73.6387 277.081 73.492 276.289 73.492C275.483 73.492 274.735 73.6387 274.045 73.932C273.356 74.2253 272.755 74.636 272.241 75.164C271.728 75.6773 271.325 76.286 271.031 76.99C270.753 77.694 270.613 78.4567 270.613 79.278C270.613 80.114 270.753 80.8913 271.031 81.61C271.325 82.314 271.728 82.93 272.241 83.458C272.755 83.9713 273.356 84.3747 274.045 84.668C274.735 84.9613 275.483 85.108 276.289 85.108ZM286.466 87V75.802H288.666V77.232C289.018 76.704 289.451 76.2933 289.964 76C290.492 75.692 291.086 75.538 291.746 75.538C292.201 75.5527 292.575 75.6187 292.868 75.736V77.716C292.663 77.628 292.45 77.5693 292.23 77.54C292.01 77.496 291.79 77.474 291.57 77.474C290.925 77.474 290.353 77.65 289.854 78.002C289.355 78.3393 288.959 78.838 288.666 79.498V87H286.466ZM299.134 87.176C298.092 87.176 297.139 86.9193 296.274 86.406C295.408 85.8927 294.726 85.2033 294.228 84.338C293.729 83.458 293.48 82.4753 293.48 81.39C293.48 80.3047 293.729 79.3293 294.228 78.464C294.741 77.5987 295.43 76.9093 296.296 76.396C297.161 75.8827 298.122 75.626 299.178 75.626C299.794 75.626 300.388 75.7213 300.96 75.912C301.532 76.1027 302.06 76.3813 302.544 76.748V71.6L304.744 71.182V87H302.566V85.922C301.612 86.758 300.468 87.176 299.134 87.176ZM299.42 85.262C300.065 85.262 300.652 85.1447 301.18 84.91C301.722 84.6753 302.177 84.338 302.544 83.898V78.86C302.177 78.4493 301.722 78.1267 301.18 77.892C300.652 77.6427 300.065 77.518 299.42 77.518C298.716 77.518 298.078 77.6867 297.506 78.024C296.934 78.3613 296.479 78.8233 296.142 79.41C295.804 79.982 295.636 80.6347 295.636 81.368C295.636 82.1013 295.804 82.7613 296.142 83.348C296.479 83.9347 296.934 84.404 297.506 84.756C298.078 85.0933 298.716 85.262 299.42 85.262ZM312.717 87.198C311.617 87.198 310.619 86.9413 309.725 86.428C308.845 85.9147 308.141 85.218 307.613 84.338C307.099 83.458 306.843 82.4753 306.843 81.39C306.843 80.3193 307.092 79.3513 307.591 78.486C308.089 77.606 308.764 76.9093 309.615 76.396C310.465 75.868 311.411 75.604 312.453 75.604C313.494 75.604 314.418 75.868 315.225 76.396C316.031 76.9093 316.669 77.6133 317.139 78.508C317.623 79.388 317.865 80.3853 317.865 81.5V82.116H309.043C309.16 82.732 309.387 83.282 309.725 83.766C310.077 84.25 310.517 84.6313 311.045 84.91C311.587 85.1887 312.174 85.328 312.805 85.328C313.347 85.328 313.868 85.2473 314.367 85.086C314.88 84.91 315.305 84.6607 315.643 84.338L317.051 85.724C316.391 86.2227 315.709 86.5967 315.005 86.846C314.315 87.0807 313.553 87.198 312.717 87.198ZM309.065 80.466H315.687C315.599 79.8793 315.393 79.366 315.071 78.926C314.763 78.4713 314.374 78.1193 313.905 77.87C313.45 77.606 312.951 77.474 312.409 77.474C311.851 77.474 311.338 77.5987 310.869 77.848C310.399 78.0973 310.003 78.4493 309.681 78.904C309.373 79.344 309.167 79.8647 309.065 80.466ZM319.96 87V75.802H322.16V77.232C322.512 76.704 322.945 76.2933 323.458 76C323.986 75.692 324.58 75.538 325.24 75.538C325.695 75.5527 326.069 75.6187 326.362 75.736V77.716C326.157 77.628 325.944 77.5693 325.724 77.54C325.504 77.496 325.284 77.474 325.064 77.474C324.419 77.474 323.847 77.65 323.348 78.002C322.849 78.3393 322.453 78.838 322.16 79.498V87H319.96ZM332.722 91.488V75.802H334.9V76.88C335.838 76.044 336.982 75.626 338.332 75.626C339.388 75.626 340.341 75.8827 341.192 76.396C342.057 76.9093 342.739 77.5987 343.238 78.464C343.736 79.3293 343.986 80.3047 343.986 81.39C343.986 82.4753 343.729 83.458 343.216 84.338C342.717 85.2033 342.035 85.8927 341.17 86.406C340.319 86.9193 339.358 87.176 338.288 87.176C337.672 87.176 337.078 87.0807 336.506 86.89C335.934 86.6847 335.406 86.3987 334.922 86.032V91.488H332.722ZM338.046 85.262C338.764 85.262 339.402 85.0933 339.96 84.756C340.532 84.4187 340.986 83.964 341.324 83.392C341.661 82.8053 341.83 82.1453 341.83 81.412C341.83 80.6787 341.661 80.0187 341.324 79.432C340.986 78.8453 340.532 78.3833 339.96 78.046C339.402 77.7087 338.764 77.54 338.046 77.54C337.415 77.54 336.828 77.6573 336.286 77.892C335.743 78.1267 335.288 78.4567 334.922 78.882V83.942C335.288 84.3527 335.743 84.6753 336.286 84.91C336.843 85.1447 337.43 85.262 338.046 85.262ZM349.735 87.198C348.928 87.198 348.217 87.0587 347.601 86.78C346.985 86.4867 346.501 86.0833 346.149 85.57C345.797 85.0567 345.621 84.4627 345.621 83.788C345.621 82.732 346.024 81.9033 346.831 81.302C347.637 80.686 348.745 80.378 350.153 80.378C351.253 80.378 352.272 80.5907 353.211 81.016V79.828C353.211 79.0213 352.976 78.42 352.507 78.024C352.052 77.628 351.377 77.43 350.483 77.43C349.969 77.43 349.434 77.5107 348.877 77.672C348.319 77.8187 347.696 78.0533 347.007 78.376L346.193 76.726C347.043 76.33 347.835 76.044 348.569 75.868C349.302 75.6773 350.043 75.582 350.791 75.582C352.243 75.582 353.365 75.9267 354.157 76.616C354.963 77.3053 355.367 78.288 355.367 79.564V87H353.211V86.032C352.712 86.428 352.177 86.7213 351.605 86.912C351.033 87.1027 350.409 87.198 349.735 87.198ZM347.733 83.744C347.733 84.2867 347.96 84.7267 348.415 85.064C348.884 85.3867 349.493 85.548 350.241 85.548C350.827 85.548 351.363 85.4673 351.847 85.306C352.345 85.13 352.8 84.8587 353.211 84.492V82.6C352.785 82.3507 352.338 82.1747 351.869 82.072C351.414 81.9547 350.901 81.896 350.329 81.896C349.522 81.896 348.884 82.0647 348.415 82.402C347.96 82.7247 347.733 83.172 347.733 83.744ZM363.16 87.198C362.089 87.198 361.114 86.9413 360.234 86.428C359.354 85.9147 358.657 85.218 358.144 84.338C357.645 83.458 357.396 82.4753 357.396 81.39C357.396 80.3047 357.652 79.3293 358.166 78.464C358.679 77.584 359.368 76.8873 360.234 76.374C361.114 75.846 362.089 75.582 363.16 75.582C364.01 75.582 364.824 75.7433 365.602 76.066C366.394 76.3887 367.076 76.8433 367.648 77.43L366.284 78.948C365.858 78.4787 365.382 78.1267 364.854 77.892C364.326 77.6573 363.776 77.54 363.204 77.54C362.529 77.54 361.913 77.7087 361.356 78.046C360.813 78.3833 360.38 78.8453 360.058 79.432C359.735 80.0187 359.574 80.6713 359.574 81.39C359.574 82.1087 359.735 82.7613 360.058 83.348C360.38 83.9347 360.82 84.404 361.378 84.756C361.935 85.0933 362.558 85.262 363.248 85.262C363.82 85.262 364.355 85.152 364.854 84.932C365.352 84.6973 365.822 84.36 366.262 83.92L367.604 85.328C367.017 85.9293 366.335 86.3913 365.558 86.714C364.795 87.0367 363.996 87.198 363.16 87.198ZM369.374 87V71.6L371.574 71.182V80.708L377.008 75.802H379.582L373.796 81.038L379.89 87H376.986L371.574 81.742V87H369.374ZM385.291 87.198C384.191 87.198 383.194 86.9413 382.299 86.428C381.419 85.9147 380.715 85.218 380.187 84.338C379.674 83.458 379.417 82.4753 379.417 81.39C379.417 80.3193 379.666 79.3513 380.165 78.486C380.664 77.606 381.338 76.9093 382.189 76.396C383.04 75.868 383.986 75.604 385.027 75.604C386.068 75.604 386.992 75.868 387.799 76.396C388.606 76.9093 389.244 77.6133 389.713 78.508C390.197 79.388 390.439 80.3853 390.439 81.5V82.116H381.617C381.734 82.732 381.962 83.282 382.299 83.766C382.651 84.25 383.091 84.6313 383.619 84.91C384.162 85.1887 384.748 85.328 385.379 85.328C385.922 85.328 386.442 85.2473 386.941 85.086C387.454 84.91 387.88 84.6607 388.217 84.338L389.625 85.724C388.965 86.2227 388.283 86.5967 387.579 86.846C386.89 87.0807 386.127 87.198 385.291 87.198ZM381.639 80.466H388.261C388.173 79.8793 387.968 79.366 387.645 78.926C387.337 78.4713 386.948 78.1193 386.479 77.87C386.024 77.606 385.526 77.474 384.983 77.474C384.426 77.474 383.912 77.5987 383.443 77.848C382.974 78.0973 382.578 78.4493 382.255 78.904C381.947 79.344 381.742 79.8647 381.639 80.466ZM397.725 87.176C396.684 87.176 395.731 86.9193 394.865 86.406C394 85.8927 393.318 85.2033 392.819 84.338C392.321 83.458 392.071 82.4753 392.071 81.39C392.071 80.3047 392.321 79.3293 392.819 78.464C393.333 77.5987 394.022 76.9093 394.887 76.396C395.753 75.8827 396.713 75.626 397.769 75.626C398.385 75.626 398.979 75.7213 399.551 75.912C400.123 76.1027 400.651 76.3813 401.135 76.748V71.6L403.335 71.182V87H401.157V85.922C400.204 86.758 399.06 87.176 397.725 87.176ZM398.011 85.262C398.657 85.262 399.243 85.1447 399.771 84.91C400.314 84.6753 400.769 84.338 401.135 83.898V78.86C400.769 78.4493 400.314 78.1267 399.771 77.892C399.243 77.6427 398.657 77.518 398.011 77.518C397.307 77.518 396.669 77.6867 396.097 78.024C395.525 78.3613 395.071 78.8233 394.733 79.41C394.396 79.982 394.227 80.6347 394.227 81.368C394.227 82.1013 394.396 82.7613 394.733 83.348C395.071 83.9347 395.525 84.404 396.097 84.756C396.669 85.0933 397.307 85.262 398.011 85.262Z" fill="#0A0A0A"/>
<path d="M493.806 87.242C492.691 87.242 491.65 87.044 490.682 86.648C489.714 86.2373 488.856 85.6727 488.108 84.954C487.374 84.2207 486.802 83.3773 486.392 82.424C485.996 81.456 485.798 80.4147 485.798 79.3C485.798 78.1853 485.996 77.1513 486.392 76.198C486.802 75.23 487.374 74.3867 488.108 73.668C488.856 72.9347 489.714 72.37 490.682 71.974C491.65 71.5633 492.691 71.358 493.806 71.358C494.92 71.358 495.962 71.5633 496.93 71.974C497.912 72.37 498.77 72.9347 499.504 73.668C500.237 74.3867 500.809 75.23 501.22 76.198C501.63 77.1513 501.836 78.1853 501.836 79.3C501.836 80.4147 501.63 81.456 501.22 82.424C500.809 83.3773 500.237 84.2207 499.504 84.954C498.77 85.6727 497.912 86.2373 496.93 86.648C495.962 87.044 494.92 87.242 493.806 87.242ZM493.828 85.108C494.62 85.108 495.353 84.9613 496.028 84.668C496.717 84.3747 497.318 83.9713 497.832 83.458C498.345 82.93 498.748 82.314 499.042 81.61C499.335 80.8913 499.482 80.1213 499.482 79.3C499.482 78.464 499.335 77.694 499.042 76.99C498.748 76.286 498.345 75.6773 497.832 75.164C497.318 74.636 496.717 74.2253 496.028 73.932C495.353 73.6387 494.62 73.492 493.828 73.492C493.021 73.492 492.273 73.6387 491.584 73.932C490.894 74.2253 490.293 74.636 489.78 75.164C489.266 75.6773 488.863 76.286 488.57 76.99C488.291 77.694 488.152 78.4567 488.152 79.278C488.152 80.114 488.291 80.8913 488.57 81.61C488.863 82.314 489.266 82.93 489.78 83.458C490.293 83.9713 490.894 84.3747 491.584 84.668C492.273 84.9613 493.021 85.108 493.828 85.108ZM508.338 87.22C507.473 87.22 506.71 87.0367 506.05 86.67C505.39 86.3033 504.877 85.79 504.51 85.13C504.143 84.4553 503.96 83.6853 503.96 82.82V75.802H506.138V82.446C506.138 83.326 506.387 84.0227 506.886 84.536C507.399 85.0493 508.081 85.306 508.932 85.306C509.533 85.306 510.069 85.1813 510.538 84.932C511.007 84.668 511.389 84.3013 511.682 83.832V75.802H513.882V87H511.682V85.856C510.817 86.7653 509.702 87.22 508.338 87.22ZM521.282 87.198C520.197 87.198 519.368 86.9487 518.796 86.45C518.224 85.9367 517.938 85.196 517.938 84.228V77.65H515.562V75.802H517.938V72.942L520.116 72.414V75.802H523.416V77.65H520.116V83.722C520.116 84.294 520.241 84.7047 520.49 84.954C520.754 85.1887 521.18 85.306 521.766 85.306C522.074 85.306 522.346 85.284 522.58 85.24C522.83 85.196 523.094 85.13 523.372 85.042V86.89C523.079 86.9927 522.734 87.066 522.338 87.11C521.957 87.1687 521.605 87.198 521.282 87.198ZM531.307 87V77.65H528.711V75.802H531.307V74.108C531.307 72.9347 531.63 72.04 532.275 71.424C532.935 70.808 533.874 70.5 535.091 70.5C535.399 70.5 535.685 70.522 535.949 70.566C536.228 70.5953 536.477 70.6467 536.697 70.72V72.612C536.433 72.5387 536.198 72.4873 535.993 72.458C535.788 72.414 535.56 72.392 535.311 72.392C534.695 72.392 534.233 72.5387 533.925 72.832C533.632 73.1107 533.485 73.558 533.485 74.174V75.802H536.697V77.65H533.485V87H531.307ZM543.187 87.22C542.102 87.22 541.112 86.9633 540.217 86.45C539.337 85.9367 538.641 85.24 538.127 84.36C537.614 83.48 537.357 82.4973 537.357 81.412C537.357 80.3267 537.614 79.344 538.127 78.464C538.641 77.584 539.337 76.8873 540.217 76.374C541.112 75.846 542.102 75.582 543.187 75.582C544.287 75.582 545.277 75.846 546.157 76.374C547.037 76.8873 547.734 77.584 548.247 78.464C548.761 79.344 549.017 80.3267 549.017 81.412C549.017 82.4973 548.761 83.48 548.247 84.36C547.734 85.24 547.037 85.9367 546.157 86.45C545.277 86.9633 544.287 87.22 543.187 87.22ZM543.187 85.284C543.877 85.284 544.5 85.1153 545.057 84.778C545.615 84.426 546.055 83.9567 546.377 83.37C546.7 82.7833 546.861 82.1233 546.861 81.39C546.861 80.6713 546.693 80.026 546.355 79.454C546.033 78.8673 545.593 78.398 545.035 78.046C544.493 77.694 543.877 77.518 543.187 77.518C542.498 77.518 541.875 77.694 541.317 78.046C540.775 78.398 540.335 78.8673 539.997 79.454C539.675 80.026 539.513 80.6713 539.513 81.39C539.513 82.1233 539.675 82.7833 539.997 83.37C540.32 83.9567 540.76 84.426 541.317 84.778C541.875 85.1153 542.498 85.284 543.187 85.284ZM551.098 87V75.802H553.298V77.232C553.65 76.704 554.082 76.2933 554.596 76C555.124 75.692 555.718 75.538 556.378 75.538C556.832 75.5527 557.206 75.6187 557.5 75.736V77.716C557.294 77.628 557.082 77.5693 556.862 77.54C556.642 77.496 556.422 77.474 556.202 77.474C555.556 77.474 554.984 77.65 554.486 78.002C553.987 78.3393 553.591 78.838 553.298 79.498V87H551.098ZM566.434 84.932H569.602C570.408 84.932 571.156 84.7927 571.846 84.514C572.535 84.2207 573.136 83.8247 573.65 83.326C574.178 82.8127 574.581 82.2187 574.86 81.544C575.153 80.8547 575.3 80.1067 575.3 79.3C575.3 78.508 575.153 77.7673 574.86 77.078C574.581 76.3887 574.178 75.7947 573.65 75.296C573.136 74.7827 572.535 74.3867 571.846 74.108C571.156 73.8147 570.408 73.668 569.602 73.668H566.434V84.932ZM564.124 87V71.6H569.558C570.716 71.6 571.787 71.798 572.77 72.194C573.752 72.5753 574.61 73.1107 575.344 73.8C576.077 74.4893 576.649 75.3033 577.06 76.242C577.47 77.1807 577.676 78.2 577.676 79.3C577.676 80.4147 577.47 81.4413 577.06 82.38C576.664 83.304 576.099 84.1107 575.366 84.8C574.632 85.4893 573.767 86.032 572.77 86.428C571.787 86.8093 570.716 87 569.558 87H564.124ZM585.212 87.198C584.112 87.198 583.115 86.9413 582.22 86.428C581.34 85.9147 580.636 85.218 580.108 84.338C579.595 83.458 579.338 82.4753 579.338 81.39C579.338 80.3193 579.587 79.3513 580.086 78.486C580.585 77.606 581.259 76.9093 582.11 76.396C582.961 75.868 583.907 75.604 584.948 75.604C585.989 75.604 586.913 75.868 587.72 76.396C588.527 76.9093 589.165 77.6133 589.634 78.508C590.118 79.388 590.36 80.3853 590.36 81.5V82.116H581.538C581.655 82.732 581.883 83.282 582.22 83.766C582.572 84.25 583.012 84.6313 583.54 84.91C584.083 85.1887 584.669 85.328 585.3 85.328C585.843 85.328 586.363 85.2473 586.862 85.086C587.375 84.91 587.801 84.6607 588.138 84.338L589.546 85.724C588.886 86.2227 588.204 86.5967 587.5 86.846C586.811 87.0807 586.048 87.198 585.212 87.198ZM581.56 80.466H588.182C588.094 79.8793 587.889 79.366 587.566 78.926C587.258 78.4713 586.869 78.1193 586.4 77.87C585.945 77.606 585.447 77.474 584.904 77.474C584.347 77.474 583.833 77.5987 583.364 77.848C582.895 78.0973 582.499 78.4493 582.176 78.904C581.868 79.344 581.663 79.8647 581.56 80.466ZM592.455 87V71.6L594.655 71.182V87H592.455ZM597.246 87V75.802H599.446V87H597.246ZM598.346 73.998C597.98 73.998 597.664 73.866 597.4 73.602C597.136 73.3233 597.004 73.0007 597.004 72.634C597.004 72.2527 597.136 71.9373 597.4 71.688C597.664 71.424 597.98 71.292 598.346 71.292C598.728 71.292 599.05 71.424 599.314 71.688C599.578 71.9373 599.71 72.2527 599.71 72.634C599.71 73.0007 599.578 73.3233 599.314 73.602C599.05 73.866 598.728 73.998 598.346 73.998ZM605.645 87L600.805 75.802H603.225L606.723 84.184L610.221 75.802H612.553L607.757 87H605.645ZM618.964 87.198C617.864 87.198 616.867 86.9413 615.972 86.428C615.092 85.9147 614.388 85.218 613.86 84.338C613.347 83.458 613.09 82.4753 613.09 81.39C613.09 80.3193 613.339 79.3513 613.838 78.486C614.337 77.606 615.011 76.9093 615.862 76.396C616.713 75.868 617.659 75.604 618.7 75.604C619.741 75.604 620.665 75.868 621.472 76.396C622.279 76.9093 622.917 77.6133 623.386 78.508C623.87 79.388 624.112 80.3853 624.112 81.5V82.116H615.29C615.407 82.732 615.635 83.282 615.972 83.766C616.324 84.25 616.764 84.6313 617.292 84.91C617.835 85.1887 618.421 85.328 619.052 85.328C619.595 85.328 620.115 85.2473 620.614 85.086C621.127 84.91 621.553 84.6607 621.89 84.338L623.298 85.724C622.638 86.2227 621.956 86.5967 621.252 86.846C620.563 87.0807 619.8 87.198 618.964 87.198ZM615.312 80.466H621.934C621.846 79.8793 621.641 79.366 621.318 78.926C621.01 78.4713 620.621 78.1193 620.152 77.87C619.697 77.606 619.199 77.474 618.656 77.474C618.099 77.474 617.585 77.5987 617.116 77.848C616.647 78.0973 616.251 78.4493 615.928 78.904C615.62 79.344 615.415 79.8647 615.312 80.466ZM626.207 87V75.802H628.407V77.232C628.759 76.704 629.192 76.2933 629.705 76C630.233 75.692 630.827 75.538 631.487 75.538C631.942 75.5527 632.316 75.6187 632.609 75.736V77.716C632.404 77.628 632.191 77.5693 631.971 77.54C631.751 77.496 631.531 77.474 631.311 77.474C630.666 77.474 630.094 77.65 629.595 78.002C629.097 78.3393 628.701 78.838 628.407 79.498V87H626.207ZM635.334 91.73C635.099 91.73 634.879 91.7153 634.674 91.686C634.469 91.6713 634.3 91.642 634.168 91.598V89.662C634.432 89.7207 634.755 89.75 635.136 89.75C636.163 89.75 636.903 89.2 637.358 88.1L637.842 87.022L633.354 75.802H635.796L639.052 84.338L642.66 75.802H645.036L639.624 88.386C639.272 89.178 638.898 89.816 638.502 90.3C638.106 90.7987 637.651 91.158 637.138 91.378C636.625 91.6127 636.023 91.73 635.334 91.73Z" fill="#0A0A0A"/>
<path d="M738.93 84.932H742.098C742.904 84.932 743.652 84.7927 744.342 84.514C745.031 84.2207 745.632 83.8247 746.146 83.326C746.674 82.8127 747.077 82.2187 747.356 81.544C747.649 80.8547 747.796 80.1067 747.796 79.3C747.796 78.508 747.649 77.7673 747.356 77.078C747.077 76.3887 746.674 75.7947 746.146 75.296C745.632 74.7827 745.031 74.3867 744.342 74.108C743.652 73.8147 742.904 73.668 742.098 73.668H738.93V84.932ZM736.62 87V71.6H742.054C743.212 71.6 744.283 71.798 745.266 72.194C746.248 72.5753 747.106 73.1107 747.84 73.8C748.573 74.4893 749.145 75.3033 749.556 76.242C749.966 77.1807 750.172 78.2 750.172 79.3C750.172 80.4147 749.966 81.4413 749.556 82.38C749.16 83.304 748.595 84.1107 747.862 84.8C747.128 85.4893 746.263 86.032 745.266 86.428C744.283 86.8093 743.212 87 742.054 87H736.62ZM757.708 87.198C756.608 87.198 755.611 86.9413 754.716 86.428C753.836 85.9147 753.132 85.218 752.604 84.338C752.091 83.458 751.834 82.4753 751.834 81.39C751.834 80.3193 752.083 79.3513 752.582 78.486C753.081 77.606 753.755 76.9093 754.606 76.396C755.457 75.868 756.403 75.604 757.444 75.604C758.485 75.604 759.409 75.868 760.216 76.396C761.023 76.9093 761.661 77.6133 762.13 78.508C762.614 79.388 762.856 80.3853 762.856 81.5V82.116H754.034C754.151 82.732 754.379 83.282 754.716 83.766C755.068 84.25 755.508 84.6313 756.036 84.91C756.579 85.1887 757.165 85.328 757.796 85.328C758.339 85.328 758.859 85.2473 759.358 85.086C759.871 84.91 760.297 84.6607 760.634 84.338L762.042 85.724C761.382 86.2227 760.7 86.5967 759.996 86.846C759.307 87.0807 758.544 87.198 757.708 87.198ZM754.056 80.466H760.678C760.59 79.8793 760.385 79.366 760.062 78.926C759.754 78.4713 759.365 78.1193 758.896 77.87C758.441 77.606 757.943 77.474 757.4 77.474C756.843 77.474 756.329 77.5987 755.86 77.848C755.391 78.0973 754.995 78.4493 754.672 78.904C754.364 79.344 754.159 79.8647 754.056 80.466ZM764.951 87V71.6L767.151 71.182V87H764.951ZM769.742 87V75.802H771.942V87H769.742ZM770.842 73.998C770.476 73.998 770.16 73.866 769.896 73.602C769.632 73.3233 769.5 73.0007 769.5 72.634C769.5 72.2527 769.632 71.9373 769.896 71.688C770.16 71.424 770.476 71.292 770.842 71.292C771.224 71.292 771.546 71.424 771.81 71.688C772.074 71.9373 772.206 72.2527 772.206 72.634C772.206 73.0007 772.074 73.3233 771.81 73.602C771.546 73.866 771.224 73.998 770.842 73.998ZM778.141 87L773.301 75.802H775.721L779.219 84.184L782.717 75.802H785.049L780.253 87H778.141ZM791.46 87.198C790.36 87.198 789.363 86.9413 788.468 86.428C787.588 85.9147 786.884 85.218 786.356 84.338C785.843 83.458 785.586 82.4753 785.586 81.39C785.586 80.3193 785.835 79.3513 786.334 78.486C786.833 77.606 787.507 76.9093 788.358 76.396C789.209 75.868 790.155 75.604 791.196 75.604C792.237 75.604 793.161 75.868 793.968 76.396C794.775 76.9093 795.413 77.6133 795.882 78.508C796.366 79.388 796.608 80.3853 796.608 81.5V82.116H787.786C787.903 82.732 788.131 83.282 788.468 83.766C788.82 84.25 789.26 84.6313 789.788 84.91C790.331 85.1887 790.917 85.328 791.548 85.328C792.091 85.328 792.611 85.2473 793.11 85.086C793.623 84.91 794.049 84.6607 794.386 84.338L795.794 85.724C795.134 86.2227 794.452 86.5967 793.748 86.846C793.059 87.0807 792.296 87.198 791.46 87.198ZM787.808 80.466H794.43C794.342 79.8793 794.137 79.366 793.814 78.926C793.506 78.4713 793.117 78.1193 792.648 77.87C792.193 77.606 791.695 77.474 791.152 77.474C790.595 77.474 790.081 77.5987 789.612 77.848C789.143 78.0973 788.747 78.4493 788.424 78.904C788.116 79.344 787.911 79.8647 787.808 80.466ZM798.703 87V75.802H800.903V77.232C801.255 76.704 801.688 76.2933 802.201 76C802.729 75.692 803.323 75.538 803.983 75.538C804.438 75.5527 804.812 75.6187 805.105 75.736V77.716C804.9 77.628 804.687 77.5693 804.467 77.54C804.247 77.496 804.027 77.474 803.807 77.474C803.162 77.474 802.59 77.65 802.091 78.002C801.593 78.3393 801.197 78.838 800.903 79.498V87H798.703ZM811.591 87.198C810.491 87.198 809.493 86.9413 808.599 86.428C807.719 85.9147 807.015 85.218 806.487 84.338C805.973 83.458 805.717 82.4753 805.717 81.39C805.717 80.3193 805.966 79.3513 806.465 78.486C806.963 77.606 807.638 76.9093 808.489 76.396C809.339 75.868 810.285 75.604 811.327 75.604C812.368 75.604 813.292 75.868 814.099 76.396C814.905 76.9093 815.543 77.6133 816.013 78.508C816.497 79.388 816.739 80.3853 816.739 81.5V82.116H807.917C808.034 82.732 808.261 83.282 808.599 83.766C808.951 84.25 809.391 84.6313 809.919 84.91C810.461 85.1887 811.048 85.328 811.679 85.328C812.221 85.328 812.742 85.2473 813.241 85.086C813.754 84.91 814.179 84.6607 814.517 84.338L815.925 85.724C815.265 86.2227 814.583 86.5967 813.879 86.846C813.189 87.0807 812.427 87.198 811.591 87.198ZM807.939 80.466H814.561C814.473 79.8793 814.267 79.366 813.945 78.926C813.637 78.4713 813.248 78.1193 812.779 77.87C812.324 77.606 811.825 77.474 811.283 77.474C810.725 77.474 810.212 77.5987 809.743 77.848C809.273 78.0973 808.877 78.4493 808.555 78.904C808.247 79.344 808.041 79.8647 807.939 80.466ZM824.025 87.176C822.984 87.176 822.03 86.9193 821.165 86.406C820.3 85.8927 819.618 85.2033 819.119 84.338C818.62 83.458 818.371 82.4753 818.371 81.39C818.371 80.3047 818.62 79.3293 819.119 78.464C819.632 77.5987 820.322 76.9093 821.187 76.396C822.052 75.8827 823.013 75.626 824.069 75.626C824.685 75.626 825.279 75.7213 825.851 75.912C826.423 76.1027 826.951 76.3813 827.435 76.748V71.6L829.635 71.182V87H827.457V85.922C826.504 86.758 825.36 87.176 824.025 87.176ZM824.311 85.262C824.956 85.262 825.543 85.1447 826.071 84.91C826.614 84.6753 827.068 84.338 827.435 83.898V78.86C827.068 78.4493 826.614 78.1267 826.071 77.892C825.543 77.6427 824.956 77.518 824.311 77.518C823.607 77.518 822.969 77.6867 822.397 78.024C821.825 78.3613 821.37 78.8233 821.033 79.41C820.696 79.982 820.527 80.6347 820.527 81.368C820.527 82.1013 820.696 82.7613 821.033 83.348C821.37 83.9347 821.825 84.404 822.397 84.756C822.969 85.0933 823.607 85.262 824.311 85.262Z" fill="#0A0A0A"/>
<circle cx="111" cy="20" r="20" fill="#09B663"/>
<path d="M101 20.5L103.632 27.3684L120.474 14.7368" stroke="white" stroke-width="3" stroke-linecap="round"/>
<path d="M131 21H254" stroke="#09B663" stroke-width="6" stroke-linecap="round"/>
<path d="M247 21H784" stroke="#DFDFDF" stroke-width="6" stroke-linecap="round"/>
<circle cx="336" cy="20" r="20" fill="#DFDFDF"/>
<path d="M326 20.5L328.632 27.3684L345.474 14.7368" stroke="white" stroke-width="3" stroke-linecap="round"/>
<circle cx="563" cy="20" r="20" fill="#DFDFDF"/>
<path d="M553 20.5L555.632 27.3684L572.474 14.7368" stroke="white" stroke-width="3" stroke-linecap="round"/>
<circle cx="784" cy="20" r="20" fill="#DFDFDF"/>
<path d="M774 20.5L776.632 27.3684L793.474 14.7368" stroke="white" stroke-width="3" stroke-linecap="round"/>
</svg>
