<svg width="31" height="22" viewBox="0 0 31 22" fill="none" xmlns="http://www.w3.org/2000/svg">
<path d="M2.45552 0.341979C1.89096 0.491623 1.33319 0.824921 0.931874 1.24664C0.258476 1.95405 0 2.67506 0 3.85181V4.58643H15.2365H30.473V3.85181C30.473 3.40968 30.4321 2.96075 30.3709 2.71588C30.0648 1.54593 29.1534 0.641267 27.9766 0.335177C27.3985 0.185533 3.02009 0.192335 2.45552 0.341979Z" fill="#09B663"/>
<path d="M7.81614e-06 12.9394C7.81614e-06 19.653 -0.00679419 19.4761 0.38092 20.2448C0.625792 20.7277 1.21757 21.3263 1.69371 21.5848C2.53035 22.0269 1.63929 21.9997 15.2365 21.9997C28.7044 21.9997 27.9222 22.0201 28.7181 21.6188C29.201 21.3739 29.7996 20.7821 30.058 20.306C30.4866 19.4965 30.473 19.7278 30.473 12.9394V6.76319H15.2365H7.81614e-06V12.9394ZM24.528 14.5583C24.8885 14.8236 24.9974 15.0412 24.9974 15.4698C24.9974 15.8983 24.8885 16.1159 24.528 16.3812C24.3444 16.5173 24.2559 16.5241 20.8277 16.5445C18.481 16.5581 17.2295 16.5445 17.0594 16.4901C16.3724 16.2928 16.1071 15.3473 16.5765 14.7828C16.9234 14.3746 16.8418 14.3814 20.7597 14.4018C24.2559 14.4154 24.3444 14.4154 24.528 14.5583Z" fill="#09B663"/>
</svg>
