<svg width="26" height="26" viewBox="0 0 26 26" fill="none" xmlns="http://www.w3.org/2000/svg">
<path d="M12.8477 0.0731802C14.1985 0.362798 15.2344 1.65338 15.2344 3.0405C15.2344 4.68675 13.8328 6.08911 12.1876 6.08911C10.786 6.08911 9.50639 5.0475 9.21694 3.67563C8.99859 2.6391 9.29819 1.65846 10.0497 0.901387C10.8064 0.144314 11.8118 -0.150385 12.8477 0.0731802Z" fill="white"/>
<path d="M22.5566 6.29203C22.7648 6.40381 22.9527 6.70867 22.9527 6.92207C22.9527 6.99321 22.78 7.75028 22.5718 8.60897C22.3636 9.46767 22.191 10.2044 22.191 10.2501C22.191 10.301 22.2976 10.4635 22.4296 10.616C22.7902 11.0326 23.0948 11.4594 23.3386 11.8862L23.562 12.2724L23.8667 12.308C24.9483 12.4299 25.7557 13.1514 25.9487 14.1676C26.0249 14.5792 26.0147 17.0282 25.9284 17.3788C25.7811 18.0139 25.3292 18.5271 24.2933 19.2334C23.7398 19.6094 23.6991 19.65 23.5011 20.0108C23.0593 20.8085 22.4246 21.652 21.8355 22.221C21.6933 22.3582 21.5461 22.5208 21.5156 22.5767C21.475 22.6428 21.4445 23.095 21.4293 23.8724C21.3988 25.1985 21.3785 25.29 21.0129 25.6304C20.6422 25.981 20.6625 25.981 18.8496 25.9962C16.9708 26.0115 16.8641 25.9962 16.5087 25.6406C16.2954 25.4272 16.0974 24.9445 16.0974 24.6294V24.4821H13.7615H11.4256V24.6294C11.4256 24.9445 11.2276 25.4272 11.0143 25.6406C10.6588 25.9962 10.5522 26.0115 8.67331 25.9962C6.86047 25.981 6.88078 25.981 6.51008 25.6304C6.16478 25.3103 6.12923 25.1731 6.08861 24.0756C6.04799 22.7596 5.98705 22.597 5.29136 21.7993C4.54997 20.9609 4.11326 20.2852 3.73749 19.4011C3.26524 18.2985 3.08751 17.4093 3.07735 16.1645L3.07227 15.3362H2.88947C2.60002 15.3362 1.95004 15.1533 1.60981 14.9704C1.42192 14.8739 1.13755 14.6503 0.909044 14.4217C0.248903 13.7662 8.01086e-05 13.1006 8.01086e-05 11.9574C8.01086e-05 11.2562 0.0660954 11.0631 0.350462 10.8954C0.568817 10.7684 0.929356 10.7633 1.15279 10.8802C1.45239 11.0377 1.49301 11.1647 1.52856 11.9574C1.54887 12.5214 1.57426 12.7144 1.66059 12.9024C1.9348 13.5071 2.48322 13.817 3.22461 13.7713C3.3668 13.7611 3.38711 13.7357 3.54961 13.2886C4.49919 10.6617 6.65227 8.69535 9.33853 7.98909C10.2729 7.7452 10.7553 7.71471 13.8173 7.71471C15.5134 7.71471 16.7016 7.69439 16.7778 7.6639C16.8489 7.6385 17.0774 7.45558 17.2907 7.2625C17.7579 6.82553 18.159 6.58673 18.7633 6.3784L19.2203 6.22089L20.7945 6.20565C22.2925 6.19041 22.3788 6.19549 22.5566 6.29203ZM11.0701 10.8548C10.5674 11.1038 10.5674 11.9472 11.0701 12.1962C11.2326 12.2775 11.4408 12.2876 13.1521 12.2876C14.8634 12.2876 15.0716 12.2775 15.229 12.1962C15.5083 12.059 15.6149 11.871 15.6149 11.5255C15.6149 11.18 15.5083 10.992 15.229 10.8548C15.0716 10.7735 14.8634 10.7633 13.1521 10.7633C11.4408 10.7633 11.2326 10.7735 11.0701 10.8548ZM20.3121 13.1514C20.0836 13.2683 19.9059 13.5579 19.9059 13.8119C19.9059 14.1981 20.2816 14.5741 20.6676 14.5741C21.0535 14.5741 21.4293 14.1981 21.4293 13.8119C21.4293 13.5681 21.2515 13.2683 21.0332 13.1565C20.7894 13.0244 20.5609 13.0244 20.3121 13.1514Z" fill="white"/>
</svg>
