<svg width="28" height="28" viewBox="0 0 28 28" fill="none" xmlns="http://www.w3.org/2000/svg">
<path d="M3.71653 0.118185C1.92551 0.5583 0.556257 1.93978 0.122254 3.74303C0 4.23205 0 4.47044 0 13.9941C0 23.4749 0.00611272 23.7561 0.122254 24.2451C0.556257 26.0606 1.93773 27.4359 3.75321 27.8699C4.23 27.9861 4.54786 27.9922 13.9981 27.9922C23.4912 27.9922 23.7601 27.9861 24.2492 27.8699C26.0646 27.4359 27.44 26.0545 27.874 24.239C27.9901 23.7683 27.9963 23.481 27.9963 17.9062C27.9963 12.3069 27.9901 12.0502 27.874 11.5673C27.44 9.73961 26.0708 8.38258 24.2186 7.93024C23.6929 7.80187 23.6073 7.80187 13.9003 7.7652L4.11386 7.72852L3.59428 7.47179C2.08444 6.71992 1.52818 4.99002 2.3045 3.45573C2.5001 3.06452 3.06859 2.49603 3.4598 2.30043C4.19333 1.92755 3.55149 1.952 13.668 1.952C20.1047 1.952 23.0144 1.97034 23.2406 2.01924C23.8335 2.14149 24.5303 2.5266 24.9827 2.97894C25.6367 3.633 25.9424 4.31151 26.0402 5.30177C26.1013 5.93749 26.1747 6.09642 26.5292 6.33482C26.9143 6.60378 27.6234 6.44485 27.874 6.0353C28.1124 5.64408 28.0024 4.44599 27.6295 3.49852C27.1038 2.12927 25.8629 0.888388 24.4937 0.362694C23.5095 -0.0224075 24.0352 -0.00407028 13.6497 0.00204277C4.58454 0.00204277 4.16887 0.00815582 3.71653 0.118185ZM22.6232 16.1274C23.045 16.3291 23.3078 16.5797 23.5401 17.0015C23.7296 17.3561 23.7479 17.4294 23.7479 17.9062C23.7479 18.383 23.7296 18.4563 23.5401 18.8109C23.3078 19.2388 23.1122 19.4222 22.6537 19.6667C22.3909 19.8011 22.2625 19.8256 21.8224 19.8256C21.3456 19.8317 21.2723 19.8134 20.9177 19.6239C20.496 19.3977 20.2514 19.1349 20.0375 18.7009C19.8419 18.2974 19.848 17.5028 20.0497 17.081C20.3065 16.5553 20.8016 16.1518 21.364 16.0051C21.6635 15.9257 22.3298 15.9929 22.6232 16.1274Z" fill="#09B663"/>
<path d="M5.68484 4.04247C5.39143 4.24419 5.24473 4.47036 5.21416 4.776C5.17138 5.13053 5.35476 5.4973 5.66651 5.68679L5.89879 5.8335H13.9981H22.0975L22.3298 5.68679C22.6415 5.4973 22.8249 5.13053 22.7821 4.776C22.7516 4.47036 22.6049 4.24419 22.3114 4.04247L22.1097 3.90799H13.9981H5.88656L5.68484 4.04247Z" fill="#09B663"/>
</svg>
